<?xml version="1.0" encoding="UTF-8" standalone="no"?>
<!-- Created with Inkscape (http://www.inkscape.org/) -->

<svg
   xmlns:dc="http://purl.org/dc/elements/1.1/"
   xmlns:cc="http://creativecommons.org/ns#"
   xmlns:rdf="http://www.w3.org/1999/02/22-rdf-syntax-ns#"
   xmlns:svg="http://www.w3.org/2000/svg"
   xmlns="http://www.w3.org/2000/svg"
   xmlns:sodipodi="http://sodipodi.sourceforge.net/DTD/sodipodi-0.dtd"
   xmlns:inkscape="http://www.inkscape.org/namespaces/inkscape"
   width="160mm"
   height="75mm"
   viewBox="0 0 160 75"
   version="1.1"
   id="svg4536"
   inkscape:version="0.92.1 r15371"
   sodipodi:docname="Logo_empty.svg">
  <defs
     id="defs4530" />
  <sodipodi:namedview
     id="base"
     pagecolor="#ffffff"
     bordercolor="#666666"
     borderopacity="1.0"
     inkscape:pageopacity="0.0"
     inkscape:pageshadow="2"
     inkscape:zoom="2.8"
     inkscape:cx="377.75473"
     inkscape:cy="138.15056"
     inkscape:document-units="mm"
     inkscape:current-layer="layer1"
     showgrid="false"
     inkscape:window-width="1920"
     inkscape:window-height="1017"
     inkscape:window-x="-8"
     inkscape:window-y="-8"
     inkscape:window-maximized="1"
     showguides="false" />
  <metadata
     id="metadata4533">
    <rdf:RDF>
      <cc:Work
         rdf:about="">
        <dc:format>image/svg+xml</dc:format>
        <dc:type
           rdf:resource="http://purl.org/dc/dcmitype/StillImage" />
        <dc:title></dc:title>
      </cc:Work>
    </rdf:RDF>
  </metadata>
  <g
     inkscape:label="Ebene 1"
     inkscape:groupmode="layer"
     id="layer1"
     transform="translate(0,-222)">
    <path
       style="fill:#0492d0;fill-opacity:1;stroke-width:0.26458332"
       d="m 36.794707,224.99536 c -19.41401,-4e-5 -35.1521098,15.65362 -35.1518698,34.96324 4e-5,19.30942 15.7380698,34.96276 35.1518698,34.96272 18.09743,-0.003 33.38545,-16.02747 35.13218,-33.94357 -1.3514,11.52371 -11.40635,21.15319 -23.10362,21.16109 -12.73366,-4e-5 -23.05635,-10.23805 -23.05647,-22.86734 1.2e-4,-12.62929 10.32281,-22.86729 23.05647,-22.86734 12.56085,0.006 22.85565,11.00221 23.09108,23.45791 0.006,-0.10143 0.0108,-0.20289 0.0155,-0.30437 2.6e-4,-19.30962 -15.72115,-34.56238 -35.13514,-34.56234 z"
       id="path4511-5"
       inkscape:connector-curvature="0"
       sodipodi:nodetypes="cccccccccc"
       inkscape:export-xdpi="82.819023"
       inkscape:export-ydpi="82.819023" />
    <path
       style="fill:#0492d0;fill-opacity:1;stroke-width:0.26458332"
       d="m 95.003037,237.90207 c -12.73366,3e-5 -23.05635,10.23804 -23.05647,22.86733 -1.7e-4,12.62949 10.32261,22.86782 23.05647,22.86786 12.733863,-4e-5 23.056633,-10.23837 23.056473,-22.86786 -1.3e-4,-12.62929 -10.32281,-22.86729 -23.056473,-22.86733 z m 0.36022,9.26785 c 0.40468,2.7e-4 0.80931,0.0345 0.87385,0.10181 0.0702,0.0736 0.11153,0.78565 0.16796,2.89439 l 0.0749,2.79622 0.20309,0.4687 c 0.25751,0.59349 0.37302,0.70557 0.46509,0.45165 0.0371,-0.10229 0.13272,-0.90002 0.21239,-1.77302 0.16554,-1.81392 -0.0282,-0.84422 0.32607,-1.99212 0.25419,-0.82357 1.133502,-1.56097 2.241732,-1.10019 1.314221,0.54643 1.937581,0.87923 3.029781,1.80971 2.09852,2.11306 2.69623,3.22525 4.28759,6.67814 0.81553,1.76954 1.3931,5.4419 1.69602,7.50394 0.0928,0.6315 0.29501,3.53764 0.20206,4.68395 -0.0555,0.68521 -0.10922,0.94921 -0.25425,1.24953 -0.22254,0.46041 -0.72556,0.94257 -1.10898,1.06299 -0.36957,0.11614 -1.17752,0.10412 -1.62729,-0.0238 v 10e-4 c -1.19454,-0.33964 -4.39435,-1.92106 -5.66424,-2.79931 -1.416161,-0.9794 -2.350821,-1.90818 -2.693903,-2.67684 -0.39638,-0.88805 -0.51578,-1.9097 -0.63303,-5.39244 l -0.0651,-1.92236 -0.78962,-1.64848 c -0.43421,-0.90685 -0.83536,-1.71263 -0.89142,-1.79059 -0.0977,-0.13588 -0.10801,-0.13257 -0.25063,0.0775 -0.0818,0.1205 -0.50298,0.96248 -0.93586,1.87172 l -0.78703,1.65364 -0.0827,2.30529 c -0.15027,4.19706 -0.29553,4.79431 -1.46658,6.00894 -1.00542,1.04283 -3.70938,2.71806 -6.03787,3.74034 -1.18324,0.51948 -1.69465,0.6375 -2.49546,0.57619 -0.74686,-0.0572 -0.93001,-0.14214 -1.32395,-0.61133 -0.57159,-0.68081 -0.7759,-1.71118 -0.70125,-3.5264 0.14819,-3.6031 0.92009,-7.67318 1.96112,-10.33787 1.02279,-2.61801 2.12447,-4.32603 4.17753,-6.47609 1.34079,-1.40415 1.71226,-1.68054 2.64996,-1.97249 1.06658,-0.33208 2.23479,0.0545 2.62879,0.86971 0.2515,0.52036 0.45114,1.48101 0.49712,2.39159 0.0649,1.2846 0.10506,1.57923 0.21549,1.57923 0.13555,0 0.44117,-0.56687 0.66043,-1.2237 0.1745,-0.52276 0.18329,-0.63346 0.22737,-2.92799 0.0342,-1.77771 0.0688,-2.40963 0.13695,-2.48098 0.0644,-0.0674 0.46915,-0.10063 0.87385,-0.10025 z"
       id="path4705-5"
       inkscape:connector-curvature="0"
       sodipodi:nodetypes="cccccccccccccccccccccccccccccccccsccccscccsccccc"
       inkscape:export-xdpi="82.819023"
       inkscape:export-ydpi="82.819023" />
    <path
       style="fill:#0492d0;fill-opacity:1;stroke-width:0.26850328"
       d="m 131.65395,234.39884 a 9.2876166,9.2207985 0 0 0 -9.28729,9.22063 9.2876166,9.2207985 0 0 0 9.28729,9.22114 9.2876166,9.2207985 0 0 0 9.2878,-9.22114 9.2876166,9.2207985 0 0 0 -9.2878,-9.22063 z m -5.00331,4.192 h 2.03966 l 2.42415,7.17734 c 0.22351,0.66841 0.38642,1.16878 0.48886,1.50068 0.11643,-0.36879 0.29785,-0.91071 0.54467,-1.62522 l 2.45152,-7.0528 h 1.82315 v 10.13685 h -1.30586 v -8.48424 l -2.97605,8.48424 h -1.22215 l -2.96157,-8.62945 v 8.62945 h -1.30638 z"
       id="path4690-4"
       inkscape:connector-curvature="0"
       inkscape:export-xdpi="82.819023"
       inkscape:export-ydpi="82.819023" />
    <path
       style="fill:#0492d0;fill-opacity:1;stroke-width:0.26850328"
       d="m 131.53162,269.73777 a 9.2876166,9.2207985 0 0 0 -9.2878,9.22115 9.2876166,9.2207985 0 0 0 9.2878,9.22062 9.2876166,9.2207985 0 0 0 9.28729,-9.22062 9.2876166,9.2207985 0 0 0 -9.28729,-9.22115 z m -4.03851,4.19406 h 4.47105 c 0.89882,0 1.58226,0.092 2.05,0.27595 0.46775,0.17936 0.84164,0.49869 1.12138,0.9586 0.27971,0.4599 0.41961,0.96798 0.41961,1.52446 0,0.71745 -0.23189,1.32226 -0.69505,1.81436 -0.46316,0.49209 -1.17851,0.80507 -2.14612,0.93844 0.3531,0.17015 0.62169,0.33777 0.80512,0.50333 0.38979,0.35872 0.75892,0.80706 1.10743,1.34514 l 1.75389,2.7528 h -1.67845 l -1.33428,-2.10426 c -0.38977,-0.60708 -0.71102,-1.07126 -0.96325,-1.3932 -0.25221,-0.32193 -0.47933,-0.54768 -0.6811,-0.67645 -0.19718,-0.12878 -0.39877,-0.21811 -0.60513,-0.26871 -0.15132,-0.0321 -0.39916,-0.0486 -0.7431,-0.0486 h -1.54771 v 4.4912 h -1.33429 z m 1.33429,1.11725 v 3.34605 h 2.86856 c 0.60992,0 1.08698,-0.0624 1.43092,-0.18656 0.34392,-0.12878 0.6051,-0.33125 0.78393,-0.60719 0.17888,-0.28054 0.2682,-0.58401 0.2682,-0.91054 0,-0.4783 -0.17393,-0.87113 -0.52245,-1.17926 -0.34392,-0.30814 -0.88963,-0.4625 -1.63711,-0.4625 z"
       id="path4697-8"
       inkscape:connector-curvature="0"
       inkscape:export-xdpi="82.819023"
       inkscape:export-ydpi="82.819023" />
    <path
       style="fill:#0492d0;fill-opacity:1;stroke-width:0.27145678"
       d="m 144.68294,225.84641 a 5.4790253,5.3453903 0 0 0 -5.47873,5.34541 5.4790253,5.3453903 0 0 0 5.47873,5.34541 5.4790253,5.3453903 0 0 0 5.47925,-5.34541 5.4790253,5.3453903 0 0 0 -5.47925,-5.34541 z m 0.0667,1.95182 c 0.88057,0 1.59991,0.29973 2.15801,0.89917 0.55811,0.59945 0.83716,1.44281 0.83716,2.53008 0,0.0662 -0.002,0.16537 -0.006,0.29766 h -4.91133 c 0.0413,0.72347 0.24598,1.27744 0.61392,1.66191 0.36793,0.38447 0.82682,0.57671 1.37666,0.57671 0.40927,0 0.75861,-0.10749 1.04799,-0.32246 0.28939,-0.21497 0.51884,-0.55811 0.68832,-1.0294 l 1.15343,0.14263 c -0.1819,0.67386 -0.51883,1.19683 -1.01079,1.5689 -0.49196,0.37207 -1.12034,0.5581 -1.88515,0.5581 -0.96325,0 -1.72806,-0.29559 -2.29444,-0.88676 -0.56224,-0.59532 -0.84336,-1.42834 -0.84336,-2.49908 0,-1.10794 0.28526,-1.96783 0.85576,-2.57968 0.57051,-0.61185 1.31052,-0.91778 2.22002,-0.91778 z m 0.0124,0.91778 c -0.51262,0 -0.94465,0.17156 -1.29605,0.51469 -0.34726,0.34314 -0.5395,0.80202 -0.5767,1.37666 h 3.67729 c -0.0496,-0.55397 -0.19017,-0.96944 -0.42168,-1.24643 -0.35554,-0.42995 -0.81648,-0.64492 -1.38286,-0.64492 z"
       id="path4585-0"
       inkscape:connector-curvature="0"
       inkscape:export-xdpi="82.819023"
       inkscape:export-ydpi="82.819023" />
    <path
       style="fill:#0492d0;fill-opacity:1;stroke-width:0.27145678"
       d="m 149.36056,238.14106 a 5.4790253,5.3453903 0 0 0 -5.47925,5.34541 5.4790253,5.3453903 0 0 0 5.47925,5.3449 5.4790253,5.3453903 0 0 0 5.47874,-5.3449 5.4790253,5.3453903 0 0 0 -5.47874,-5.34541 z m 0.2806,0.73536 v 2.30064 h 1.12241 v 0.86816 h -1.12241 v 3.85093 c 0,0.31832 0.0186,0.52296 0.0558,0.61391 0.0413,0.0909 0.10542,0.1633 0.19224,0.21704 0.0909,0.0537 0.21911,0.0806 0.38447,0.0806 0.12403,0 0.28732,-0.0145 0.4899,-0.0434 l 0.16122,0.98599 c -0.31419,0.0661 -0.59531,0.0992 -0.84336,0.0992 -0.40514,0 -0.71933,-0.0641 -0.94257,-0.19224 -0.22325,-0.12816 -0.38034,-0.29559 -0.47129,-0.5023 -0.0909,-0.21084 -0.13643,-0.65112 -0.13643,-1.32085 v -3.78891 h -0.81855 v -0.86816 h 0.81855 v -1.63091 z"
       id="path4585-1-3"
       inkscape:connector-curvature="0"
       inkscape:export-xdpi="82.819023"
       inkscape:export-ydpi="82.819023" />
    <path
       style="fill:#0492d0;fill-opacity:1;stroke-width:0.27145678"
       d="m 145.0841,250.56913 a 5.4790253,5.3453903 0 0 0 -5.47926,5.34489 5.4790253,5.3453903 0 0 0 5.47926,5.34541 5.4790253,5.3453903 0 0 0 5.47925,-5.34541 5.4790253,5.3453903 0 0 0 -5.47925,-5.34489 z m 0.14676,1.81798 c 0.56224,0 1.01906,0.0661 1.37045,0.19843 0.35141,0.1323 0.60979,0.29973 0.77515,0.5023 0.16537,0.19844 0.28112,0.45062 0.34727,0.75654 0.0372,0.19017 0.0558,0.5333 0.0558,1.0294 v 1.48828 c 0,1.03766 0.0227,1.69499 0.0682,1.97197 0.0496,0.27285 0.14469,0.53537 0.28525,0.78755 h -1.16582 c -0.11576,-0.23151 -0.19017,-0.5023 -0.22325,-0.81236 -0.41341,0.35141 -0.81235,0.59945 -1.19682,0.74415 -0.38033,0.14469 -0.78962,0.21704 -1.22784,0.21704 -0.72347,0 -1.2795,-0.1757 -1.66811,-0.5271 -0.38861,-0.35554 -0.58291,-0.80822 -0.58291,-1.35806 0,-0.32246 0.0724,-0.61598 0.21704,-0.88057 0.14883,-0.26871 0.34107,-0.48369 0.57671,-0.64492 0.23978,-0.16123 0.5085,-0.28318 0.80615,-0.36587 0.21911,-0.0579 0.54984,-0.11368 0.99219,-0.16743 0.90124,-0.10748 1.56476,-0.23564 1.99057,-0.38447 0.004,-0.15296 0.006,-0.25011 0.006,-0.29146 0,-0.45475 -0.10542,-0.77514 -0.31626,-0.96118 -0.28526,-0.25218 -0.709,-0.37827 -1.27124,-0.37827 -0.52504,0 -0.91364,0.093 -1.16582,0.27906 -0.24805,0.1819 -0.43202,0.50642 -0.55191,0.97358 l -1.09141,-0.14883 c 0.0992,-0.46715 0.26252,-0.84336 0.4899,-1.12861 0.22737,-0.28939 0.55604,-0.51057 0.98598,-0.66353 0.42995,-0.15709 0.92811,-0.23564 1.49449,-0.23564 z m 1.42006,3.42925 c -0.40514,0.16536 -1.01285,0.30592 -1.82314,0.42167 -0.45889,0.0661 -0.78341,0.14056 -0.97358,0.22325 -0.19017,0.0827 -0.33693,0.20464 -0.44029,0.36587 -0.10335,0.15709 -0.15503,0.33279 -0.15503,0.5271 0,0.29765 0.11163,0.5457 0.33487,0.74414 0.22737,0.19843 0.5581,0.29765 0.99219,0.29765 0.42994,0 0.81235,-0.093 1.14721,-0.27905 0.33487,-0.19017 0.58085,-0.44855 0.73794,-0.77515 0.11989,-0.25218 0.17983,-0.62425 0.17983,-1.11621 z"
       id="path4585-8-0"
       inkscape:connector-curvature="0"
       inkscape:export-xdpi="82.819023"
       inkscape:export-ydpi="82.819023" />
    <path
       style="fill:none;stroke:#0492d0;stroke-width:1.33633673px;stroke-linecap:butt;stroke-linejoin:miter;stroke-opacity:1"
       d="m 114.83862,272.17558 8.0802,4.14679"
       id="path4635-6"
       inkscape:connector-curvature="0"
       sodipodi:nodetypes="cc"
       inkscape:export-xdpi="82.819023"
       inkscape:export-ydpi="82.819023" />
    <path
       style="fill:none;stroke:#0492d0;stroke-width:1.33633673px;stroke-linecap:butt;stroke-linejoin:miter;stroke-opacity:1"
       d="m 115.68056,251.15935 7.60102,-3.58192"
       id="path4635-7-6"
       inkscape:connector-curvature="0"
       sodipodi:nodetypes="cc"
       inkscape:export-xdpi="82.819023"
       inkscape:export-ydpi="82.819023" />
    <path
       style="fill:none;stroke:#0492d0;stroke-width:1.33633673px;stroke-linecap:butt;stroke-linejoin:miter;stroke-opacity:1"
       d="m 138.13923,250.16006 2.85941,2.65851"
       id="path4635-2-5"
       inkscape:connector-curvature="0"
       sodipodi:nodetypes="cc"
       inkscape:export-xdpi="82.819023"
       inkscape:export-ydpi="82.819023" />
    <path
       style="fill:none;stroke:#0492d0;stroke-width:1.33633673px;stroke-linecap:butt;stroke-linejoin:miter;stroke-opacity:1"
       d="m 140.80868,243.33286 3.23739,-0.0346"
       id="path4635-1-9"
       inkscape:connector-curvature="0"
       sodipodi:nodetypes="cc"
       inkscape:export-xdpi="82.819023"
       inkscape:export-ydpi="82.819023" />
    <path
       style="fill:none;stroke:#0492d0;stroke-width:1.33633673px;stroke-linecap:butt;stroke-linejoin:miter;stroke-opacity:1"
       d="m 137.92661,237.00177 2.6468,-2.63316"
       id="path4635-8-7"
       inkscape:connector-curvature="0"
       sodipodi:nodetypes="cc"
       inkscape:export-xdpi="82.819023"
       inkscape:export-ydpi="82.819023" />
  </g>
</svg>
